<?xml version="1.0" encoding="utf-8"?>
<!-- Generator: Adobe Illustrator 25.0.1, SVG Export Plug-In . SVG Version: 6.00 Build 0)  -->
<svg version="1.1" xmlns="http://www.w3.org/2000/svg" xmlns:xlink="http://www.w3.org/1999/xlink" x="0px" y="0px" width="750px"
	 height="750px" viewBox="0 0 750 750" enable-background="new 0 0 750 750" xml:space="preserve">
<g id="FILL-BACKGROUND">
	<rect fill="#FFFFFF" width="750" height="750"/>
</g>
<g id="N-TEXT">
</g>
<g id="N-DIMENSIONS">
</g>
<g id="_x32_D_x24_AG-DIAGRAM">
	<g id="POLYLINE_264_">
		<g>
			<g>
				
					<line fill="none" stroke="#E74C3C" stroke-width="3.25" stroke-linecap="round" stroke-linejoin="round" x1="285.389" y1="667.763" x2="287.389" y2="667.763"/>
				
					<line fill="none" stroke="#E74C3C" stroke-width="3.25" stroke-linecap="round" stroke-linejoin="round" stroke-dasharray="4.0858,7.1502" x1="294.539" y1="667.763" x2="470.74" y2="667.763"/>
				
					<line fill="none" stroke="#E74C3C" stroke-width="3.25" stroke-linecap="round" stroke-linejoin="round" x1="474.315" y1="667.763" x2="476.315" y2="667.763"/>
			</g>
		</g>
	</g>
</g>
<g id="_x32_D_x24_AG-DETAILS-DIAGRAM">
</g>
<g id="_x32_D_x24_AG-GUIDES">
</g>
<g id="_x32_D_x24_AG-DETAILS">
</g>
<g id="_x32_D_x24_AG-SPORTS">
	<g id="POLYLINE_2990_">
		
			<path fill="none" stroke="#E74C3C" stroke-width="2.75" stroke-linecap="round" stroke-linejoin="round" stroke-miterlimit="10" d="
			M396.782,472.417c0.15,6.494,0.198,22.298,0.2,28.959c0.083,4.023,0.153,8.261,0.736,12.238c0.222,1.428,0.533,2.967,1.303,4.2
			c0.792,1.278,1.934,2.123,3.193,2.858c1.671,0.957,3.512,1.7,5.311,2.38c5.14,1.875,10.495,3.34,15.881,4.309
			c1.31,0.22,2.715,0.429,4.041,0.5c0.706,0.036,1.507,0.049,2.185-0.097c0.086-0.02,0.114-0.028,0.114-0.028
			c0.081-0.023,0.108-0.031,0.108-0.031c0.077-0.025,0.102-0.033,0.102-0.033c0.073-0.027,0.097-0.036,0.097-0.036
			c0.069-0.029,0.091-0.039,0.091-0.039c0.086-0.042,0.107-0.053,0.107-0.053c0.08-0.046,0.1-0.058,0.1-0.058
			c0.075-0.05,0.093-0.063,0.093-0.063c0.087-0.067,0.103-0.081,0.103-0.081c0.08-0.073,0.095-0.088,0.095-0.088
			c0.073-0.078,0.087-0.095,0.087-0.095c0.068-0.084,0.081-0.102,0.081-0.102c0.051-0.072,0.063-0.09,0.063-0.09
			c0.048-0.075,0.059-0.095,0.059-0.095c0.034-0.059,0.056-0.099,0.056-0.099c0.332-0.618,0.95-2.586,1.212-3.277
			c1.183-3.469,2.313-7.128,3.15-10.696c1.317-5.49,2.137-12.254,2.871-17.889c0.365-3.043,0.726-6.24,0.749-9.304
			c0.021-2.367-0.215-4.788-0.528-7.133"/>
	</g>
	<g id="POLYLINE_2989_">
		
			<path fill="none" stroke="#E74C3C" stroke-width="2.75" stroke-linecap="round" stroke-linejoin="round" stroke-miterlimit="10" d="
			M413.681,633.391c-0.59-3.536-1.019-7.162-0.919-10.749c0.158-5.731,1.328-11.456,2.705-17.007
			c2.289-9.239,6.702-20.836,9.431-29.993c2.331-7.798,4.154-16.086,5.563-24.107c0.846-4.942,1.679-10.558,2.2-15.54
			c0.257-2.598,0.505-5.339,0.477-7.952c-0.017-0.796-0.052-1.627-0.215-2.41c-0.147-0.764-0.467-1.454-0.712-2.162"/>
	</g>
	<g id="POLYLINE_2967_">
		
			<path fill="none" stroke="#E74C3C" stroke-width="2.75" stroke-linecap="round" stroke-linejoin="round" stroke-miterlimit="10" d="
			M383.121,635.224c2.029-7.963,3.98-17.02,5.565-25.095c1.824-9.439,3.383-19.249,4.099-28.836
			c0.415-5.766,0.63-11.691,0.147-17.457c-0.23-3.279-1.193-7.541-1.853-10.782c-0.298-1.569-0.542-3.196-0.652-4.788
			c-0.154-2.225-0.086-4.514,0.075-6.737c0.369-4.941,1.248-10.068,2.208-14.932c0.643-3.136,1.337-6.491,2.314-9.537
			c0.283-0.853,0.595-1.726,1.021-2.52c0.409-0.785,0.982-1.384,1.523-2.022"/>
	</g>
	<g id="POLYLINE_2966_">
		
			<path fill="none" stroke="#E74C3C" stroke-width="2.75" stroke-linecap="round" stroke-linejoin="round" stroke-miterlimit="10" d="
			M377.889,654.16c-0.41-4.092,0.446-8.209,1.676-12.098c0.415-1.303,0.993-2.894,1.478-4.176c0.278-0.708,0.602-1.568,0.986-2.197
			c0.053-0.082,0.07-0.108,0.07-0.108c0.052-0.073,0.069-0.097,0.069-0.097c0.068-0.085,0.085-0.105,0.085-0.105
			c0.076-0.08,0.084-0.088,0.084-0.088c0.084-0.071,0.092-0.077,0.092-0.077c0.083-0.052,0.092-0.057,0.092-0.057
			c0.083-0.035,0.092-0.037,0.092-0.037c0.084-0.018,0.092-0.018,0.092-0.018c0.085-0.001,0.094,0,0.094,0
			c0.087,0.016,0.096,0.018,0.096,0.018c0.08,0.028,0.089,0.031,0.089,0.031c0.082,0.04,0.091,0.046,0.091,0.046
			c0.075,0.046,0.094,0.059,0.094,0.059c0.077,0.057,0.097,0.072,0.097,0.072c0.08,0.067,0.1,0.085,0.1,0.085
			c0.062,0.057,0.103,0.097,0.103,0.097c1.112,1.195,2.23,3.055,3.403,4.352c0.938,1.077,1.983,2.08,3.129,2.933
			c0.861,0.635,1.794,1.199,2.8,1.572c1.525,0.578,3.197,0.62,4.799,0.408c1.389-0.185,2.793-0.49,4.14-0.879
			c1.903-0.56,3.775-1.343,5.379-2.526c1.339-0.993,2.459-2.263,3.446-3.598c0.949-1.232,1.876-2.966,2.881-4.146
			c0.075-0.079,0.112-0.117,0.112-0.117c0.075-0.072,0.112-0.106,0.112-0.106c0.075-0.065,0.094-0.081,0.094-0.081
			c0.076-0.06,0.095-0.074,0.095-0.074c0.077-0.055,0.096-0.068,0.096-0.068c0.078-0.05,0.098-0.062,0.098-0.062
			c0.08-0.045,0.1-0.055,0.1-0.055c0.082-0.04,0.103-0.049,0.103-0.049c0.085-0.035,0.106-0.044,0.106-0.044
			c0.066-0.023,0.088-0.031,0.088-0.031c0.068-0.021,0.09-0.027,0.09-0.027c0.07-0.018,0.093-0.024,0.093-0.024
			c0.072-0.016,0.096-0.021,0.096-0.021c0.68-0.134,1.392-0.035,2.003,0.094c1.042,0.234,2.027,0.721,2.77,1.383
			c2.24,2.077,2.963,5.332,4.861,7.652c1.154,1.449,2.736,2.496,4.424,3.227c4.799,2.03,11.482,3.283,16.481,4.883
			c2.657,0.846,5.431,1.686,7.87,3.056c1.152,0.651,2.142,1.526,2.993,2.524c0.713,0.812,1.52,1.764,1.995,2.714
			c0.436,0.852,0.638,1.699,0.607,2.588c-0.05,1.136-0.435,2.197-1.021,3.156c-0.751,1.227-1.915,2.239-3.209,2.745
			c-2.077,0.804-4.456,0.789-6.657,0.855c-4.239-0.025-52.717,0.088-55.354-0.042c-1.757-0.054-3.67-0.143-5.411-0.357
			c-1.456-0.193-3.037-0.434-4.347-1.106c-0.209-0.112-0.367-0.217-0.494-0.312c-0.086-0.067-0.113-0.09-0.113-0.09"/>
	</g>
	<g id="POLYLINE_2965_">
		
			<path fill="none" stroke="#E74C3C" stroke-width="2.75" stroke-linecap="round" stroke-linejoin="round" stroke-miterlimit="10" d="
			M333.686,643.174c1.355-0.767,2.559-2.039,3.689-3.079c0.925-0.86,1.919-1.69,2.966-2.397c2.09-1.411,4.393-2.562,6.832-3.226
			c2.742-0.758,6.107-0.732,8.309,1.27c1.616,1.478,2.287,3.634,2.895,5.661c0.747,2.552,1.298,5.825,3.415,7.614
			c1.029,0.891,2.134,1.408,3.363,1.902c3.44,1.36,8.906,2.339,12.541,3.194c0.972,0.238,2.01,0.506,2.952,0.84
			c0.689,0.242,1.5,0.603,2.026,1.059c0.087,0.077,0.115,0.102,0.115,0.102c0.081,0.079,0.107,0.105,0.107,0.105
			c0.076,0.081,0.1,0.109,0.1,0.109c0.071,0.084,0.094,0.112,0.094,0.112c0.066,0.086,0.087,0.116,0.087,0.116
			c0.041,0.059,0.061,0.089,0.061,0.089c0.039,0.061,0.057,0.091,0.057,0.091c0.036,0.062,0.054,0.094,0.054,0.094
			c0.034,0.064,0.051,0.096,0.051,0.096c0.032,0.065,0.048,0.098,0.048,0.098c0.266,0.597,0.333,1.133,0.383,1.723
			c0.043,0.603,0.042,1.233,0.005,1.837c-0.125,1.82-0.565,3.831-1.811,5.208c-0.08,0.085-0.121,0.127-0.121,0.127
			c-0.084,0.082-0.126,0.122-0.126,0.122c-1.327,1.195-3.077,1.419-4.761,1.585c-0.702,0.062-1.573,0.093-2.284,0.112
			c0,0-0.849,0.015-0.849,0.015l-40.556,0.011c-2.279-0.015-5.416,0.023-7.67-0.185c-1.657-0.166-3.56-0.396-4.861-1.495
			c-0.07-0.061-0.104-0.092-0.104-0.092c-0.067-0.063-0.1-0.095-0.1-0.095c-0.064-0.065-0.095-0.098-0.095-0.098
			c-1.115-1.206-1.28-2.774-1.384-4.316c-0.179-3.866,0.661-7.721,1.591-11.452c0.554-2.144,1.192-4.351,1.934-6.438
			c0.397-1.074,0.838-2.287,1.476-3.224c0.062-0.086,0.083-0.113,0.083-0.113c0.061-0.078,0.082-0.102,0.082-0.102
			c0.06-0.07,0.08-0.092,0.08-0.092c0.078-0.081,0.098-0.1,0.098-0.1c0.077-0.068,0.096-0.084,0.096-0.084
			c0.084-0.062,0.093-0.068,0.093-0.068c0.082-0.048,0.091-0.053,0.091-0.053c0.08-0.035,0.089-0.038,0.089-0.038
			c0.078-0.022,0.087-0.024,0.087-0.024c0.085-0.01,0.093-0.011,0.093-0.011c0.083,0.004,0.091,0.005,0.091,0.005
			c0.081,0.018,0.089,0.021,0.089,0.021c0.087,0.036,0.094,0.04,0.094,0.04c0.084,0.051,0.092,0.057,0.092,0.057
			c0.082,0.066,0.09,0.073,0.09,0.073c0.08,0.08,0.094,0.096,0.094,0.096c0.071,0.086,0.085,0.104,0.085,0.104
			c0.055,0.077,0.069,0.097,0.069,0.097c0.132,0.203,0.193,0.325,0.282,0.498l0.456,0.94c0.206,0.417,0.491,0.901,0.756,1.22
			c0.07,0.084,0.094,0.112,0.094,0.112c0.073,0.082,0.098,0.108,0.098,0.108c0.076,0.079,0.103,0.104,0.103,0.104
			c0.08,0.076,0.107,0.1,0.107,0.1c0.083,0.072,0.112,0.096,0.112,0.096c0.058,0.046,0.087,0.069,0.087,0.069
			c0.06,0.044,0.09,0.066,0.09,0.066c0.062,0.042,0.093,0.063,0.093,0.063c0.064,0.04,0.096,0.06,0.096,0.06
			c0.066,0.038,0.099,0.056,0.099,0.056c0.068,0.036,0.102,0.053,0.102,0.053c0.07,0.033,0.105,0.049,0.105,0.049
			c0.878,0.373,1.698,0.395,2.592,0.298C331.929,643.948,332.854,643.639,333.686,643.174z"/>
	</g>
	<g id="POLYLINE_2955_">
		
			<path fill="none" stroke="#E74C3C" stroke-width="2.75" stroke-linecap="round" stroke-linejoin="round" stroke-miterlimit="10" d="
			M353.061,634.384c-0.442-3.041-0.966-6.43-1.662-9.411c-0.46-2.169-1.764-6.152-2.424-8.313c-0.579-1.955-1.045-3.982-1.274-6.009
			c-0.366-3.126-0.296-6.322-0.019-9.454c0.308-3.465,0.931-7.145,1.591-10.563c1.831-9.138,5.319-23.639,6.649-32.76
			c1.065-6.963,2.338-18.815,4.156-25.481c0.844-3.376,2.543-7.716,3.279-11.116c0.107-0.556,0.17-1.129,0.162-1.696
			c0.001-0.678-0.144-1.547-0.215-2.222"/>
	</g>
	<g id="POLYLINE_2925_">
		
			<path fill="none" stroke="#E74C3C" stroke-width="2.75" stroke-linecap="round" stroke-linejoin="round" stroke-miterlimit="10" d="
			M325.249,639.733c0.161-1.648,0.528-4.979,0.738-6.612c0.493-3.903,1.545-9.775,1.626-13.649
			c0.109-4.124-0.581-9.153-0.878-13.277c-0.324-4.957-0.469-12.564-0.771-17.526l-2.444-36.381
			c-0.329-7.597-0.689-15.994-0.407-23.56c0.106-2.516,0.312-5.119,0.728-7.602c0.461-2.752,1.169-5.506,2.072-8.146
			c0.581-1.659,1.264-3.317,2.179-4.822c0.749-1.228,1.742-2.456,2.971-3.106c0.219-0.116,0.411-0.195,0.567-0.253"/>
	</g>
	<g id="POLYLINE_133_">
		
			<path fill="none" stroke="#E74C3C" stroke-width="2.75" stroke-linecap="round" stroke-linejoin="round" stroke-miterlimit="10" d="
			M337.377,469.98c-0.677,4.918-1.697,12.169-2.555,17c-0.574,3.253-2.741,14.624-3.139,17.692
			c-0.088,0.652-0.179,1.376-0.225,2.032c-0.031,0.448-0.037,0.97,0.059,1.377c0.016,0.066,0.021,0.087,0.021,0.087
			c0.024,0.085,0.031,0.107,0.031,0.107c0.028,0.083,0.035,0.104,0.035,0.104c0.032,0.082,0.04,0.102,0.04,0.102
			c0.036,0.08,0.045,0.1,0.045,0.1c0.04,0.079,0.05,0.098,0.05,0.098c0.044,0.078,0.056,0.097,0.056,0.097
			c0.049,0.077,0.061,0.096,0.061,0.096c0.039,0.057,0.067,0.095,0.067,0.095c0.058,0.076,0.088,0.114,0.088,0.114
			c0.064,0.076,0.097,0.114,0.097,0.114c0.069,0.076,0.106,0.114,0.106,0.114c0.554,0.561,1.101,0.919,1.744,1.326
			c0.817,0.502,1.708,0.961,2.573,1.374c4.349,2.038,9.048,3.522,13.664,4.833c2.335,0.645,5.117,1.368,7.481,1.873
			c0.717,0.139,1.632,0.367,2.344,0.384c0.069,0,0.103-0.001,0.103-0.001c0.068-0.003,0.101-0.005,0.101-0.005
			c0.066-0.006,0.1-0.009,0.1-0.009c0.066-0.009,0.098-0.013,0.098-0.013c0.065-0.011,0.098-0.018,0.098-0.018
			c0.065-0.014,0.098-0.022,0.098-0.022c0.066-0.018,0.099-0.027,0.099-0.027c0.067-0.021,0.1-0.032,0.1-0.032
			c0.068-0.024,0.102-0.037,0.102-0.037c1.111-0.477,1.996-1.236,2.886-2.007c1.278-1.15,2.443-2.455,3.461-3.84
			c1.949-2.644,3.277-5.717,4.443-8.771c0.811-2.14,1.961-5.498,2.801-7.626c0.41-1.068,2.085-4.837,2.559-5.93
			c0.793-1.87,1.475-3.825,1.831-5.828c0.613-3.393,0.583-6.892,0.171-10.308"/>
	</g>
	<g id="POLYLINE_132_">
		
			<path fill="none" stroke="#E74C3C" stroke-width="2.75" stroke-linecap="round" stroke-linejoin="round" stroke-miterlimit="10" d="
			M390.082,468.446c6.001,4.09,12.757,7.18,19.839,8.826c6.01,1.389,12.287,1.624,18.435,1.599
			c4.678-0.069,9.663-0.251,14.315-0.773c0.722-0.103,1.569-0.312,2.156-0.678c0.067-0.042,0.101-0.064,0.101-0.064
			c0.066-0.044,0.098-0.067,0.098-0.067c0.064-0.047,0.095-0.07,0.095-0.07c0.062-0.049,0.093-0.074,0.093-0.074
			c0.06-0.051,0.09-0.078,0.09-0.078c0.059-0.054,0.088-0.081,0.088-0.081c0.085-0.085,0.113-0.115,0.113-0.115
			c0.055-0.06,0.082-0.091,0.082-0.091c0.054-0.063,0.08-0.095,0.08-0.095c0.458-0.579,0.68-1.146,0.891-1.78
			c0.225-0.704,0.376-1.448,0.492-2.177c0.696-4.283,0.495-14.541,0.633-18.988c0.254-15.785,3.05-40.646,4.248-56.565
			c0.223-3.426,0.447-7.118,0.365-10.546c-0.035-1.296-0.135-2.615-0.336-3.897c-0.233-1.545-0.711-3.353-1.035-4.885"/>
	</g>
	<g id="POLYLINE_131_">
		
			<path fill="none" stroke="#E74C3C" stroke-width="2.75" stroke-linecap="round" stroke-linejoin="round" stroke-miterlimit="10" d="
			M342.186,375.168c-3.219,21.267-5.568,43.62-6.983,65.08c-0.416,6.915-0.986,14.626-0.853,21.523
			c0.034,1.175,0.077,2.411,0.217,3.578c0.094,0.833,0.297,1.801,0.656,2.535c0.759,1.623,2.404,2.33,3.974,2.79
			c1.226,0.355,2.526,0.578,3.789,0.76c6.785,0.812,22.716,2.203,29.416,2.779c2.371,0.162,5.486,0.398,7.85,0.448
			c1.247,0.026,2.553,0.03,3.794-0.114c1.191-0.135,2.494-0.446,3.445-1.165c0.085-0.066,0.127-0.099,0.127-0.099
			c0.083-0.069,0.123-0.104,0.123-0.104c0.08-0.072,0.119-0.109,0.119-0.109c0.077-0.075,0.115-0.114,0.115-0.114
			c0.075-0.079,0.111-0.119,0.111-0.119c0.072-0.082,0.108-0.123,0.108-0.123c0.954-1.169,1.355-2.587,1.804-3.989
			c0.799-2.795,1.801-5.84,2.917-8.515c3.555-8.663,9.468-20.349,12.813-29.057l4.094-10.891"/>
	</g>
	<g id="POLYLINE_130_">
		
			<path fill="none" stroke="#E74C3C" stroke-width="2.75" stroke-linecap="round" stroke-linejoin="round" stroke-miterlimit="10" d="
			M472.451,320.612c1.645-2.168,2.467-4.831,3.217-7.412c0.457-1.642,1.103-4.034,1.646-5.576c0.575-1.643,1.302-3.325,2.054-4.897
			c0.758-1.586,2.334-4.652,3.068-6.251c0.767-1.666,1.486-3.442,2.089-5.174c1.156-3.3,2.064-6.873,2.835-10.288
			c0.904-4.125,1.683-8.475,2.159-12.666c0.39-3.655,0.732-7.401,0.514-11.076c-0.215-2.38-0.691-4.761-1.392-7.046
			c-0.523-1.732-1.423-4.068-1.957-5.8c-0.44-1.424-0.83-2.996-1.151-4.456c-2.482-12.034-3.476-25.948-6.83-37.78
			c-1.135-4.01-2.551-8.021-4.712-11.602c-1.903-3.18-4.428-5.993-7.411-8.195c-7.126-5.297-17.154-7.622-25.503-10.304
			c-2.742-0.893-5.567-1.858-8.107-3.231c-2.152-1.155-4.125-2.673-5.984-4.248"/>
	</g>
	<g id="POLYLINE_129_">
		
			<path fill="none" stroke="#E74C3C" stroke-width="2.75" stroke-linecap="round" stroke-linejoin="round" stroke-miterlimit="10" d="
			M456.253,252.576c0.59,2.148,2.177,4.734,3.178,6.733c0.201,0.396,0.295,0.652,0.423,1.035c0.638,2.07,0.752,4.328,0.411,6.463
			c-0.901,6.588-1.364,17.285-2.04,23.952c-0.228,2.141-0.523,4.384-0.979,6.487c-0.348,1.645-0.859,3.284-1.488,4.843
			c-0.516,1.317-1.277,2.942-1.668,4.296c-0.416,1.369-0.35,2.856-0.249,4.267"/>
	</g>
	<g id="POLYLINE_128_">
		
			<path fill="none" stroke="#E74C3C" stroke-width="2.75" stroke-linecap="round" stroke-linejoin="round" stroke-miterlimit="10" d="
			M446.253,320.341c-0.018-3.56,0.269-7.268,0.655-10.809c1.184-10.616,3.324-23.852,5.09-34.433l7.125-37.198
			c0.473-2.646,1.589-9.796,2.015-12.543"/>
	</g>
	<g id="POLYLINE_127_">
		
			<path fill="none" stroke="#E74C3C" stroke-width="2.75" stroke-linecap="round" stroke-linejoin="round" stroke-miterlimit="10" d="
			M344.95,353.167c-1.183,4.086-1.574,9.245-2.171,13.466l-0.674,4.234c-0.194,1.527-0.426,3.289,0.252,4.706
			c0.039,0.075,0.052,0.1,0.052,0.1c0.041,0.073,0.056,0.098,0.056,0.098c0.044,0.072,0.059,0.095,0.059,0.095
			c0.047,0.07,0.063,0.093,0.063,0.093c0.049,0.068,0.066,0.09,0.066,0.09c0.052,0.066,0.07,0.088,0.07,0.088
			c0.073,0.085,0.092,0.106,0.092,0.106c0.078,0.082,0.098,0.102,0.098,0.102c0.071,0.068,0.101,0.095,0.101,0.095
			c0.062,0.054,0.094,0.081,0.094,0.081c0.065,0.052,0.099,0.078,0.099,0.078c0.068,0.05,0.103,0.075,0.103,0.075
			c0.071,0.048,0.107,0.072,0.107,0.072c0.893,0.552,1.833,0.742,2.84,0.889c1.678,0.219,3.431,0.195,5.121,0.152
			c2.207-0.083,7.683-0.353,9.769-0.324c1.832,0.009,3.807,0.105,5.632,0.258c5.761,0.42,15.482,2.315,21.285,3.3
			c11.766,1.981,23.897,3.179,35.834,2.885c6.999-0.204,14.093-0.965,20.789-3.093c1.398-0.457,2.831-0.989,4.145-1.653
			c0.909-0.459,1.907-1.056,2.584-1.763c0.076-0.083,0.101-0.111,0.101-0.111c0.071-0.083,0.094-0.111,0.094-0.111
			c0.066-0.084,0.088-0.112,0.088-0.112c0.061-0.085,0.081-0.114,0.081-0.114c0.099-0.149,0.13-0.208,0.176-0.293
			c0.031-0.06,0.046-0.091,0.046-0.091c0.351-0.748,0.353-1.486,0.335-2.241c-0.164-2.81-0.735-6.575-1.083-9.395"/>
	</g>
	<g id="POLYLINE_126_">
		
			<path fill="none" stroke="#E74C3C" stroke-width="2.75" stroke-linecap="round" stroke-linejoin="round" stroke-miterlimit="10" d="
			M446.253,320.341c-0.754,0.428-1.716,0.946-2.385,1.471c-0.749,0.566-1.343,1.205-1.809,1.914
			c-0.574,0.871-0.951,1.862-1.234,2.862c-0.401,1.44-0.618,2.94-0.741,4.427c-0.285,3.811-0.024,7.698,0.811,11.428
			c0.681,3.143,2.221,6.739,3.404,9.741c0.54,1.394,1.031,2.862,1.372,4.318c0.428,1.7,0.799,3.9,1.598,5.458
			c0.404,0.809,0.961,1.512,1.65,1.999c1.027,0.727,2.27,1.049,3.448,1.111c1.71,0.083,3.443-0.396,4.718-1.45
			c0.955-0.809,1.52-1.733,2.033-2.795c0.64-1.362,1.07-2.841,1.452-4.294c0.673-2.655,1.386-6.078,2.41-8.581
			c0.964-2.511,2.525-5.201,3.53-7.697c0.271-0.681,0.508-1.493,0.606-2.196c0.145-0.923,0.134-1.969,0.215-2.9
			c0.109-1.965,1.342-3.703,2.255-5.36c0.803-1.425,1.49-2.939,2.011-4.49c0.353-1.059,0.647-2.16,0.786-3.269
			c0.135-0.995,0.107-2.164-0.275-3.063c-0.45-1.086-1.22-1.844-2.035-2.575c-0.967-0.846-2.029-1.634-3.088-2.36
			c-1.867-1.266-3.846-2.427-5.924-3.311c-1.254-0.521-2.602-0.984-3.962-1.054c-0.833-0.052-1.806,0.123-2.506,0.493
			c-0.964,0.479-1.656,1.328-2.121,2.191c-0.839,1.531-1.296,3.454-2.287,4.877C449.169,318.671,447.735,319.506,446.253,320.341z"
			/>
	</g>
	<g id="POLYLINE_125_">
		
			<path fill="none" stroke="#E74C3C" stroke-width="2.75" stroke-linecap="round" stroke-linejoin="round" stroke-miterlimit="10" d="
			M389.085,145.556c-0.457,1.922-0.799,3.999-1.081,5.956c-0.123,1.007-1.159,9.657-1.263,10.393
			c-0.075,0.646-0.115,1.306-0.048,1.954c0.087,0.86,0.312,1.708,0.576,2.529c0.835,2.527,2.096,4.923,3.574,7.132
			c2.199,3.289,5.063,6.115,8.203,8.506c3.164,2.393,6.656,4.436,10.372,5.841c4.782,1.777,10.681,2.78,13.721-2.308
			c1.377-2.248,2.096-4.841,2.644-7.4c0.939-4.408,1.207-9.047,1.203-13.551c0.017-5.817-0.049-12.003-0.589-17.789"/>
	</g>
	<g id="POLYLINE_124_">
		
			<path fill="none" stroke="#E74C3C" stroke-width="2.75" stroke-linecap="round" stroke-linejoin="round" stroke-miterlimit="10" d="
			M428.126,140.727c0.977,0.288,2.124,0.456,3.097,0.241c0.087-0.02,0.115-0.028,0.115-0.028c0.085-0.023,0.113-0.032,0.113-0.032
			c0.083-0.026,0.111-0.035,0.111-0.035c0.082-0.029,0.109-0.04,0.109-0.04c0.08-0.032,0.106-0.044,0.106-0.044
			c0.078-0.036,0.103-0.048,0.103-0.048c0.076-0.039,0.101-0.052,0.101-0.052c0.084-0.049,0.112-0.065,0.112-0.065
			c0.081-0.053,0.108-0.071,0.108-0.071c0.079-0.057,0.104-0.077,0.104-0.077c0.076-0.061,0.101-0.082,0.101-0.082
			c0.074-0.065,0.098-0.088,0.098-0.088c0.071-0.069,0.095-0.093,0.095-0.093c0.069-0.073,0.092-0.098,0.092-0.098
			c0.067-0.077,0.089-0.103,0.089-0.103c0.574-0.72,0.853-1.447,1.181-2.257c1.047-2.853,2.471-6.273,3.229-9.191
			c0.369-1.508,0.718-3.23,0.312-4.74c-0.026-0.083-0.035-0.11-0.035-0.11c-0.028-0.08-0.038-0.107-0.038-0.107
			c-0.031-0.077-0.041-0.103-0.041-0.103c-0.033-0.074-0.045-0.099-0.045-0.099c-0.036-0.071-0.048-0.095-0.048-0.095
			c-0.038-0.068-0.051-0.09-0.051-0.09c-0.054-0.086-0.069-0.107-0.069-0.107c-0.059-0.081-0.074-0.1-0.074-0.1
			c-0.063-0.075-0.079-0.093-0.079-0.093c-0.085-0.086-0.098-0.098-0.098-0.098c-0.081-0.07-0.095-0.081-0.095-0.081
			c-0.086-0.063-0.101-0.073-0.101-0.073c-0.075-0.048-0.09-0.057-0.09-0.057c-0.078-0.044-0.094-0.052-0.094-0.052
			c-0.08-0.04-0.113-0.054-0.113-0.054c-0.066-0.028-0.1-0.042-0.1-0.042c-0.068-0.025-0.103-0.037-0.103-0.037
			c-0.07-0.023-0.105-0.033-0.105-0.033c-0.071-0.02-0.107-0.029-0.107-0.029c-0.47-0.115-0.875-0.126-1.291-0.129"/>
	</g>
	<g id="POLYLINE_123_">
		
			<path fill="none" stroke="#E74C3C" stroke-width="2.75" stroke-linecap="round" stroke-linejoin="round" stroke-miterlimit="10" d="
			M382.01,121.763c-0.111,0.048-0.554,0.222-0.666,0.267c-0.116,0.048-0.217,0.094-0.265,0.117
			c-0.098,0.047-0.161,0.082-0.191,0.098c-0.062,0.035-0.092,0.054-0.092,0.054c-0.06,0.038-0.09,0.057-0.09,0.057
			c-0.086,0.061-0.1,0.072-0.1,0.072c-0.082,0.066-0.095,0.078-0.095,0.078c-0.077,0.072-0.09,0.084-0.09,0.084
			c-0.072,0.078-0.084,0.091-0.084,0.091c-0.066,0.084-0.077,0.099-0.077,0.099c-0.051,0.076-0.06,0.092-0.06,0.092
			c-0.046,0.081-0.054,0.098-0.054,0.098c-0.039,0.084-0.047,0.101-0.047,0.101c-0.028,0.07-0.034,0.088-0.034,0.088
			c-0.025,0.074-0.031,0.093-0.031,0.093c-0.022,0.077-0.027,0.097-0.027,0.097c-0.019,0.08-0.027,0.122-0.027,0.122
			c-0.116,0.638-0.06,1.188,0.014,1.806c0.119,0.896,0.342,1.842,0.557,2.721c0.536,1.958,1.731,7.178,2.453,8.999
			c0.238,0.621,0.558,1.307,0.942,1.831c0.064,0.085,0.096,0.126,0.096,0.126c0.065,0.081,0.098,0.12,0.098,0.12
			c0.067,0.076,0.101,0.113,0.101,0.113c0.069,0.072,0.103,0.107,0.103,0.107c0.07,0.067,0.106,0.1,0.106,0.1
			c0.082,0.071,0.105,0.09,0.105,0.09c0.071,0.055,0.094,0.073,0.094,0.073c0.072,0.052,0.096,0.068,0.096,0.068
			c0.073,0.048,0.098,0.064,0.098,0.064c0.075,0.045,0.1,0.059,0.1,0.059c0.076,0.041,0.101,0.055,0.101,0.055
			c0.077,0.038,0.103,0.051,0.103,0.051c0.078,0.035,0.104,0.047,0.104,0.047c0.898,0.372,1.805,0.342,2.738,0.375"/>
	</g>
	<g id="POLYLINE_122_">
		
			<path fill="none" stroke="#E74C3C" stroke-width="2.75" stroke-linecap="round" stroke-linejoin="round" stroke-miterlimit="10" d="
			M386.523,122.318c-0.099,1.804-0.346,3.86,0.082,5.627c0.158,0.671,0.422,1.317,0.74,1.927c0.325,0.626,0.722,1.248,1.117,1.831
			c0.923,1.311,2.311,3.302,3.182,4.652c2.357,3.478,3.82,4.088,7.878,3.248l2.755-0.583c2.457-0.488,4.984-0.732,7.489-0.665
			c1.879,0.055,3.78,0.296,5.557,0.928l2.009,0.737c0.775,0.278,1.682,0.525,2.455,0.453c1.261-0.126,2.251-0.76,3.257-1.42
			c1.073-0.738,2.368-1.569,3.202-2.532c1.093-1.223,1.979-2.64,2.656-4.132c0.463-1.037,0.819-2.136,0.972-3.264
			c0.201-1.443,0.1-2.921-0.075-4.362c-0.12-0.916-0.395-2.848-0.474-3.736c-0.089-0.916-0.242-2.854-0.385-3.737
			c-0.124-0.85-0.33-1.704-0.629-2.503l-0.673-1.757c-0.266-0.716-0.498-1.572-0.56-2.295c-0.077-0.813-0.027-1.653,0.043-2.465
			c0.194-2.405,0.888-5.426-0.615-7.518c-0.063-0.085-0.085-0.112-0.085-0.112c-0.066-0.083-0.089-0.11-0.089-0.11
			c-0.069-0.08-0.093-0.107-0.093-0.107c-0.072-0.078-0.097-0.104-0.097-0.104c-0.076-0.076-0.101-0.101-0.101-0.101
			c-0.079-0.074-0.106-0.098-0.106-0.098c-0.082-0.072-0.11-0.095-0.11-0.095c-0.161-0.133-0.254-0.197-0.356-0.267
			c-1.232-0.796-2.644-1.063-4.058-1.313c-1.742-0.259-5.738-0.771-7.48-0.946c-0.725-0.061-1.474-0.094-2.2-0.044
			c-0.542,0.036-1.135,0.132-1.644,0.299c-0.865,0.278-1.618,0.787-2.381,1.225c-0.489,0.283-1.071,0.564-1.583,0.644
			c-0.065,0.01-0.098,0.015-0.098,0.015c-0.066,0.008-0.099,0.011-0.099,0.011c-0.066,0.005-0.099,0.007-0.099,0.007
			c-0.071,0.003-0.109,0.003-0.109,0.003c-0.076,0-0.114-0.001-0.114-0.001c-0.077-0.004-0.115-0.006-0.115-0.006
			c-0.077-0.007-0.116-0.011-0.116-0.011c-1.081-0.141-2.115-0.709-3.095-1.106c-0.836-0.353-1.784-0.668-2.686-0.712
			c-1.764-0.097-3.462,0.48-5.047,1.197c-1.128,0.521-2.246,1.142-3.301,1.797c-0.99,0.619-2.089,1.431-2.795,2.323
			c-0.555,0.694-0.908,1.454-0.981,2.285c-0.121,1.553,0.559,3.215,0.971,4.684c0.187,0.659,0.38,1.417,0.359,2.093
			c-0.024,0.734-0.282,1.335-0.592,1.934c-0.384,0.706-0.881,1.599-1.069,2.354c-0.295,1.057-0.398,2.175-0.474,3.266
			C386.662,119.757,386.523,122.318,386.523,122.318z"/>
	</g>
	<g id="POLYLINE_121_">
		
			<path fill="none" stroke="#E74C3C" stroke-width="2.75" stroke-linecap="round" stroke-linejoin="round" stroke-miterlimit="10" d="
			M387.99,140.274c0.194,0.758,0.408,1.727,0.566,2.496l0.896,4.704c0.461,2.304,1.091,4.613,2.16,6.715
			c1.048,2.088,2.468,4.007,4.222,5.556c1.62,1.437,3.539,2.544,5.595,3.222c3.382,1.103,7.024,1.311,10.547,0.923
			c2.269-0.274,4.559-0.79,6.594-1.86c1.621-0.849,2.958-2.176,3.864-3.762c1.058-1.836,1.726-3.905,2.374-5.914
			c0.981-3.207,2.809-10.127,3.83-13.285c1.289-4.181,3.04-8.765,4.761-12.805c1.739-4.468,2.601-9.265,3.244-14
			c0.48-3.947,0.871-8.038-0.064-11.947c-0.319-1.324-0.808-2.617-1.466-3.811c-1.73-3.18-4.667-5.999-7.159-8.6
			c-1.505-1.528-2.995-3.651-4.824-4.796c-4.464-2.721-10.005-2.658-15.009-3.534c-2.177-0.382-4.725-1.033-6.935-0.862
			c-3.223,0.202-5.678,2.545-7.862,4.685c-1.188,1.205-3.654,3.752-4.838,4.984c-2.654,2.831-5.255,5.892-6.667,9.553
			c-1.323,3.474-1.484,7.272-1.337,10.95c0.263,4.772,0.62,9.66,1.883,14.287C383.808,128.48,386.638,134.944,387.99,140.274z"/>
	</g>
	<g id="POLYLINE_120_">
		
			<path fill="none" stroke="#E74C3C" stroke-width="2.75" stroke-linecap="round" stroke-linejoin="round" stroke-miterlimit="10" d="
			M308.829,318.896c-1.853-1.24-3.567-2.726-4.963-4.471c-0.672-0.841-1.235-1.782-1.73-2.736l-1.201-2.373
			c-1.488-2.976-6.875-10.515-8.76-13.399c-5.753-8.868-11.431-18.097-15.848-27.712c-1.323-2.989-2.541-6.098-3.239-9.297
			c-0.563-2.563-0.72-5.259-0.104-7.826c0.48-2.072,1.424-4.012,2.544-5.81c1.849-2.954,4.181-5.655,6.527-8.224
			c5.593-5.992,11.64-11.952,17.891-17.257c1.708-1.457,4.071-3.245,5.873-4.608c1.497-1.143,3.083-2.397,4.395-3.747
			c1.624-1.646,2.94-3.601,4.164-5.555c0.828-1.354,3.783-6.238,4.643-7.518c1.311-2.014,2.865-4.146,4.343-6.042
			c2.688-3.434,5.677-6.885,8.678-10.049c1.714-1.784,3.582-3.688,5.472-5.286c0.889-0.748,1.849-1.442,2.886-1.97
			c0.788-0.408,1.635-0.733,2.471-1.027c3.441-1.241,11.383-3.16,14.935-4.166c2.203-0.617,4.461-1.344,6.585-2.187
			c4.505-1.777,9.525-4.254,14.14-5.706c2.679-0.862,5.598-1.233,8.396-1.493"/>
	</g>
	<g id="POLYLINE_119_">
		
			<path fill="none" stroke="#E74C3C" stroke-width="2.75" stroke-linecap="round" stroke-linejoin="round" stroke-miterlimit="10" d="
			M329.696,308.437c-0.029-1.043-0.118-2.098-0.362-3.114c-0.208-0.885-0.544-1.744-0.967-2.548
			c-1.306-2.477-3.283-4.843-4.463-7.389c-0.993-2.086-1.351-4.618-2.055-6.807c-0.474-1.527-1.266-2.878-2.236-4.139
			c-1.595-2.075-3.629-4.265-5.018-6.481c-1.347-2.116-2.407-4.439-3.188-6.82c-0.458-1.429-0.829-2.909-0.98-4.404
			c-0.118-1.162-0.092-2.454,0.359-3.499c0.474-1.115,1.266-1.858,2.105-2.631c2.877-2.565,5.999-5.501,8.651-8.286
			c3.473-3.685,7.369-8.139,11.647-10.878c2.121-1.377,4.416-2.55,6.83-3.316c1.354-0.408,2.923-0.786,4.294-0.457
			c0.086,0.024,0.115,0.033,0.115,0.033c0.083,0.028,0.11,0.037,0.11,0.037c0.08,0.031,0.106,0.041,0.106,0.041
			c0.077,0.034,0.102,0.045,0.102,0.045c0.072,0.036,0.09,0.045,0.09,0.045c0.086,0.049,0.103,0.059,0.103,0.059
			c0.082,0.053,0.098,0.064,0.098,0.064c0.078,0.057,0.093,0.069,0.093,0.069c0.074,0.061,0.089,0.073,0.089,0.073
			c0.084,0.078,0.098,0.092,0.098,0.092c0.079,0.084,0.092,0.098,0.092,0.098c0.062,0.074,0.086,0.104,0.086,0.104
			c0.047,0.062,0.07,0.094,0.07,0.094c0.044,0.065,0.066,0.099,0.066,0.099c0.042,0.068,0.062,0.103,0.062,0.103
			c0.039,0.071,0.059,0.108,0.059,0.108c0.037,0.074,0.055,0.112,0.055,0.112c0.347,0.779,0.436,1.521,0.541,2.342
			c0,0,0.367,3.724,0.367,3.724c0.346,3.765,5.258,31.851,5.95,36.242c1.019,6.045,4.448,24.232,5.053,30.038
			c0.238,2.133,0.444,4.336,0.337,6.483c-0.045,1.4-0.36,3.21,0.301,4.475c0.398,0.787,0.985,1.383,1.572,1.899
			c0.614,0.532,1.303,1.008,1.995,1.435c2.223,1.358,4.697,2.368,7.121,3.307c4.067,1.61,9.631,3.342,13.353,5.583
			c1.8,1.078,3.481,2.506,4.412,4.422c1.109,2.264,1.147,4.891,0.834,7.347c-0.484,3.484-1.748,6.913-3.904,9.712
			c-2.228,2.898-5.289,5.048-8.482,6.767c-2.197,1.163-4.642,2.031-7.158,1.937c-1.533-0.053-3.041-0.45-4.473-0.982
			c-2.126-0.795-4.183-1.919-6.153-3.041c-2.764-1.695-27.264-16.034-29.217-17.474c-1.272-0.871-2.535-1.816-3.634-2.898
			c-0.775-0.758-1.462-1.619-2-2.562c-0.83-1.423-1.485-3.249-2.358-4.647c-1.017-1.672-2.53-2.982-4.034-4.205l-3.352-2.625
			c-1.616-1.324-3.514-2.872-4.104-4.916c-0.287-0.986-0.131-2.025,0.228-2.91c0.663-1.614,1.764-2.901,2.993-4.096
			c2.04-1.941,4.473-3.466,7.045-4.598c1.679-0.732,3.449-1.322,5.252-1.653c1.23-0.222,2.59-0.343,3.812-0.132
			c1.692,0.271,2.918,1.326,4.152,2.375c0.621,0.639,1.494,1.498,1.958,2.22c0.407,0.608,0.691,1.314,1.089,1.871
			c0.052,0.07,0.078,0.104,0.078,0.104c0.054,0.067,0.081,0.099,0.081,0.099c0.056,0.063,0.084,0.094,0.084,0.094
			c0.073,0.074,0.088,0.088,0.088,0.088c0.077,0.069,0.092,0.082,0.092,0.082c0.08,0.063,0.097,0.075,0.097,0.075
			c0.084,0.057,0.102,0.068,0.102,0.068c0.08,0.047,0.103,0.059,0.103,0.059c0.07,0.035,0.094,0.046,0.094,0.046
			c0.073,0.031,0.098,0.04,0.098,0.04c0.076,0.027,0.102,0.036,0.102,0.036c0.079,0.024,0.105,0.031,0.105,0.031
			c0.081,0.02,0.109,0.027,0.109,0.027c0.084,0.017,0.113,0.022,0.113,0.022c0.873,0.141,1.935,0.006,2.805-0.021
			c2.001-0.109,4.291,0.314,6.289,0.403c1.009,0.042,2.143,0.027,3.081-0.335c1.346-0.533,2.089-1.719,2.981-2.741
			c1.466-1.764,3.578-2.57,5.652-3.327"/>
	</g>
</g>
<g id="_x32_D_x24_AG-OUTLINE">
	<g id="POLYLINE_224_">
		
			<path fill="none" stroke="#E74C3C" stroke-width="3.5" stroke-linecap="round" stroke-linejoin="round" stroke-miterlimit="10" d="
			M383.121,635.224c2.029-7.963,3.98-17.02,5.565-25.095c1.824-9.439,3.383-19.249,4.099-28.836
			c0.415-5.766,0.63-11.691,0.147-17.457c-0.23-3.279-1.193-7.541-1.853-10.782c-0.298-1.569-0.542-3.196-0.652-4.788
			c-0.154-2.225-0.086-4.514,0.075-6.737c0.369-4.941,1.248-10.068,2.208-14.932c0.643-3.136,1.337-6.491,2.314-9.537
			c0.283-0.853,0.595-1.726,1.021-2.52c0.409-0.785,0.982-1.384,1.523-2.022c-0.269-2.211-0.397-4.589-0.482-6.817
			c-0.243-9.045-0.063-24.265-0.304-33.285c-2.297-1.158-4.583-2.511-6.7-3.971c-0.517,1.639-1.033,3.568-2.342,4.732
			c-0.079,0.068-0.119,0.101-0.119,0.101c-0.082,0.065-0.123,0.097-0.123,0.097c-0.963,0.711-2.04,0.97-3.179,1.136
			c-1.722,0.227-3.514,0.171-5.247,0.11c0.412,3.416,0.442,6.914-0.171,10.308c-0.356,2.003-1.039,3.958-1.831,5.828
			c-0.909,2.087-2.514,5.642-3.247,7.737c-1.184,3.245-2.465,7.095-3.956,10.186c-1.556,3.303-3.768,6.318-6.562,8.679
			c0.071,0.679,0.215,1.544,0.215,2.222c0.008,0.566-0.055,1.14-0.162,1.696c-0.736,3.399-2.435,7.74-3.279,11.116
			c-1.811,6.619-3.104,18.595-4.156,25.481c-1.318,9.067-4.827,23.652-6.649,32.76c-0.659,3.42-1.283,7.096-1.591,10.563
			c-0.277,3.132-0.347,6.327,0.019,9.454c0.229,2.027,0.695,4.055,1.274,6.009c0.668,2.186,1.959,6.127,2.424,8.313
			c0.695,2.977,1.221,6.375,1.662,9.411c1.175,0.349,2.345,1.121,3.074,2.042c1.161,1.454,1.722,3.223,2.242,4.977
			c0.747,2.552,1.298,5.824,3.415,7.614c1.159,1.001,2.453,1.561,3.852,2.087c3.488,1.289,8.612,2.173,12.246,3.055
			c-0.396-3.941,0.388-7.912,1.541-11.669c0.451-1.464,1.066-3.157,1.608-4.593c0.274-0.7,0.602-1.565,0.978-2.189
			c0.053-0.083,0.07-0.109,0.07-0.109c0.052-0.074,0.069-0.098,0.069-0.098c0.068-0.087,0.085-0.107,0.085-0.107
			c0.075-0.081,0.083-0.09,0.083-0.09c0.083-0.073,0.091-0.079,0.091-0.079c0.082-0.055,0.09-0.06,0.09-0.06
			c0.082-0.038,0.091-0.041,0.091-0.041c0.083-0.021,0.091-0.022,0.091-0.022c0.084-0.004,0.092-0.004,0.092-0.004
			c0.085,0.012,0.094,0.014,0.094,0.014c0.078,0.024,0.087,0.027,0.087,0.027C383.039,635.177,383.048,635.182,383.121,635.224z"/>
	</g>
	<g id="POLYLINE_223_">
		
			<path fill="none" stroke="#E74C3C" stroke-width="3.5" stroke-linecap="round" stroke-linejoin="round" stroke-miterlimit="10" d="
			M357.461,309.236c-0.179-1.311-0.578-3.953-0.792-5.26c-2.75-15.826-7.666-43.012-9.954-58.963l-0.367-3.724
			c-0.085-0.725-0.208-1.563-0.489-2.225c-0.034-0.078-0.052-0.116-0.052-0.116c-0.036-0.075-0.055-0.112-0.055-0.112
			c-0.039-0.072-0.059-0.108-0.059-0.108c-0.041-0.069-0.062-0.103-0.062-0.103c-0.043-0.066-0.066-0.099-0.066-0.099
			c-0.046-0.063-0.07-0.094-0.07-0.094c-0.061-0.075-0.074-0.09-0.074-0.09c-0.078-0.085-0.091-0.099-0.091-0.099
			c-0.083-0.08-0.097-0.093-0.097-0.093c-0.073-0.062-0.088-0.074-0.088-0.074c-0.077-0.058-0.093-0.069-0.093-0.069
			c-0.081-0.054-0.097-0.065-0.097-0.065c-0.085-0.05-0.102-0.06-0.102-0.06c-0.071-0.037-0.089-0.046-0.089-0.046
			c-0.069-0.032-0.094-0.043-0.094-0.043c-0.079-0.032-0.105-0.042-0.105-0.042c-0.082-0.029-0.109-0.038-0.109-0.038
			c-0.654-0.205-1.352-0.189-1.958-0.128c-0.732,0.068-1.401,0.239-2.1,0.43c-2.471,0.727-4.814,1.904-6.983,3.283
			c-5.333,3.363-9.611,8.875-14.064,13.261c-2.097,2.103-4.779,4.524-6.977,6.532c-0.541,0.514-1.099,1.163-1.414,1.781
			c-0.618,1.176-0.647,2.432-0.55,3.677c0.122,1.407,0.449,2.802,0.858,4.151c0.746,2.409,1.787,4.758,3.105,6.91
			c1.366,2.265,3.398,4.491,5.037,6.569c0.985,1.255,1.856,2.63,2.355,4.154c0.77,2.267,1.105,4.884,2.139,7.058
			c1.179,2.547,3.157,4.911,4.463,7.389c0.423,0.804,0.759,1.664,0.967,2.548c0.244,1.015,0.333,2.072,0.362,3.114
			c0.624,0.308,1.143,0.69,1.644,1.093l0.918,0.763c0.6,0.618,1.367,1.37,1.845,2.056c0.475,0.659,0.762,1.415,1.202,2.035
			c0.052,0.07,0.078,0.104,0.078,0.104c0.054,0.067,0.081,0.099,0.081,0.099c0.056,0.063,0.084,0.094,0.084,0.094
			c0.073,0.074,0.088,0.088,0.088,0.088c0.077,0.069,0.092,0.082,0.092,0.082c0.08,0.063,0.097,0.075,0.097,0.075
			c0.084,0.057,0.102,0.068,0.102,0.068c0.08,0.047,0.103,0.059,0.103,0.059c0.07,0.035,0.094,0.046,0.094,0.046
			c0.073,0.031,0.098,0.04,0.098,0.04c0.076,0.027,0.102,0.036,0.102,0.036c0.079,0.024,0.105,0.031,0.105,0.031
			c0.081,0.02,0.109,0.027,0.109,0.027c0.084,0.017,0.113,0.022,0.113,0.022c0.873,0.141,1.935,0.006,2.805-0.021
			c2.001-0.109,4.291,0.314,6.289,0.403c1.009,0.042,2.143,0.027,3.081-0.335c1.346-0.533,2.089-1.719,2.981-2.741
			C353.274,310.799,355.386,309.993,357.461,309.236z"/>
	</g>
	<g id="POLYLINE_222_">
		
			<path fill="none" stroke="#E74C3C" stroke-width="3.5" stroke-linecap="round" stroke-linejoin="round" stroke-miterlimit="10" d="
			M453.841,310.653c-0.101-1.415-0.167-2.896,0.249-4.267c0.389-1.351,1.153-2.981,1.668-4.296c0.629-1.559,1.14-3.198,1.488-4.843
			c0.456-2.102,0.751-4.348,0.979-6.487c0.677-6.683,1.136-17.337,2.04-23.952c0.341-2.135,0.227-4.393-0.411-6.463
			c-0.1-0.321-0.284-0.775-0.423-1.035c-0.999-1.991-2.592-4.594-3.178-6.733l-2.362,11.946c-2.587,14.259-5.33,30.641-6.983,45.01
			c-0.386,3.541-0.673,7.248-0.655,10.809c1.339-0.742,2.809-1.63,3.737-2.844c0.881-1.135,1.334-2.565,1.879-3.857
			C452.318,312.542,452.933,311.36,453.841,310.653z"/>
	</g>
	<g id="POLYLINE_221_">
		
			<path fill="none" stroke="#E74C3C" stroke-width="3.5" stroke-linecap="round" stroke-linejoin="round" stroke-miterlimit="10" d="
			M426.986,164.609c1.86,1.576,3.832,3.094,5.984,4.248c2.539,1.372,5.367,2.338,8.107,3.231
			c8.384,2.689,18.362,5.006,25.503,10.304c2.983,2.203,5.507,5.015,7.411,8.195c2.161,3.581,3.577,7.592,4.712,11.602
			c3.353,11.822,4.349,25.753,6.83,37.78c0.319,1.46,0.711,3.031,1.151,4.456c0.535,1.734,1.431,4.066,1.957,5.8
			c0.701,2.284,1.177,4.666,1.392,7.046c0.218,3.675-0.124,7.422-0.514,11.076c-0.475,4.189-1.254,8.545-2.159,12.666
			c-0.773,3.411-1.678,6.988-2.835,10.288c-1.305,3.901-3.358,7.749-5.157,11.426c-0.752,1.569-1.479,3.254-2.054,4.897
			c-0.586,1.682-1.174,3.902-1.646,5.576c-0.747,2.575-1.577,5.252-3.217,7.412c0.053,1.614-0.366,3.212-0.867,4.734
			c-0.382,1.125-0.851,2.241-1.385,3.302c-0.514,1.036-1.399,2.478-1.938,3.507c-0.395,0.748-0.753,1.637-0.86,2.428
			c-0.163,1.079-0.11,2.232-0.261,3.309c-0.134,1.049-0.458,1.978-0.862,2.931c-0.577,1.363-1.695,3.513-2.319,4.864
			c-0.58,1.247-1.136,2.575-1.566,3.881c-0.62,1.851-1.339,5.05-1.823,6.962c-0.808,3.021-1.884,6.788-5.06,8.022
			c-1.34,0.542-2.843,0.66-4.258,0.379c0.345,2.754,0.891,6.46,1.075,9.198c0.027,0.483,0.023,1.104-0.052,1.541
			c-0.056,0.346-0.152,0.643-0.274,0.897c-0.03,0.061-0.046,0.091-0.046,0.091c-0.048,0.09-0.084,0.15-0.101,0.177
			c-0.056,0.087-0.075,0.116-0.075,0.116c-0.06,0.086-0.081,0.114-0.081,0.114c-0.065,0.084-0.088,0.112-0.088,0.112
			c-0.07,0.084-0.094,0.111-0.094,0.111c-0.212,0.238-0.412,0.414-0.592,0.563c0.325,1.535,0.802,3.339,1.035,4.885
			c0.201,1.282,0.301,2.6,0.336,3.897c0.082,3.426-0.142,7.122-0.365,10.546c-1.202,15.973-3.989,40.703-4.248,56.565
			c-0.14,4.515,0.066,14.657-0.632,18.988c-0.222,1.328-0.533,2.858-1.357,3.924c-0.053,0.065-0.079,0.096-0.079,0.096
			c-0.054,0.062-0.081,0.092-0.081,0.092c-0.056,0.059-0.084,0.088-0.084,0.088c-0.086,0.084-0.115,0.111-0.115,0.111
			c-0.059,0.053-0.089,0.079-0.089,0.079c-0.061,0.051-0.092,0.075-0.092,0.075c-0.063,0.048-0.094,0.072-0.094,0.072
			c-0.064,0.046-0.097,0.068-0.097,0.068c-0.066,0.043-0.1,0.065-0.1,0.065c-0.725,0.436-1.407,0.57-2.19,0.698
			c-1.197,0.178-3.007,0.28-4.227,0.377c0.313,2.346,0.549,4.765,0.528,7.133c-0.018,3.938-0.675,8.61-1.163,12.542
			c-0.583,4.445-1.255,9.29-2.231,13.655c-0.861,3.901-2.08,7.885-3.369,11.668c0.24,0.698,0.582,1.457,0.712,2.162
			c0.163,0.783,0.199,1.611,0.215,2.41c0.028,2.612-0.219,5.351-0.477,7.952c-0.521,4.981-1.353,10.595-2.2,15.54
			c-1.41,8.024-3.231,16.307-5.563,24.107c-2.733,9.17-7.136,20.736-9.431,29.993c-1.377,5.551-2.547,11.275-2.705,17.007
			c-0.099,3.586,0.329,7.216,0.919,10.749c0.072-0.062,0.09-0.077,0.09-0.077c0.073-0.057,0.091-0.071,0.091-0.071
			c0.074-0.052,0.092-0.065,0.092-0.065c0.075-0.048,0.094-0.059,0.094-0.059c0.077-0.043,0.096-0.053,0.096-0.053
			c0.079-0.039,0.099-0.048,0.099-0.048c0.081-0.034,0.102-0.043,0.102-0.043c0.084-0.03,0.105-0.037,0.105-0.037
			c0.087-0.026,0.109-0.032,0.109-0.032c0.067-0.017,0.09-0.023,0.09-0.023c0.069-0.015,0.093-0.019,0.093-0.019
			c0.673-0.129,1.386-0.033,1.991,0.096c1.042,0.234,2.027,0.721,2.77,1.383c2.269,2.106,2.98,5.413,4.935,7.743
			c1.146,1.404,2.698,2.42,4.35,3.136c4.799,2.03,11.482,3.283,16.481,4.883c2.657,0.846,5.431,1.686,7.87,3.056
			c1.152,0.651,2.142,1.526,2.993,2.524c0.713,0.812,1.52,1.764,1.995,2.714c0.436,0.852,0.638,1.699,0.607,2.588
			c-0.05,1.136-0.435,2.197-1.021,3.156c-0.751,1.227-1.915,2.239-3.209,2.745c-2.077,0.804-4.456,0.789-6.657,0.855
			c-4.239-0.025-52.717,0.088-55.354-0.042c-1.757-0.054-3.67-0.143-5.411-0.357c-1.456-0.193-3.037-0.434-4.347-1.106
			c-0.209-0.112-0.367-0.217-0.494-0.312c-0.086-0.067-0.113-0.09-0.113-0.09c-0.08-0.069-0.122-0.023-0.122-0.023
			c-0.132,0.13-0.259,0.266-0.359,0.343c-0.323,0.268-0.673,0.492-1.002,0.645c-1.06,0.502-2.145,0.668-3.285,0.791
			c-0.45,0.045-0.986,0.081-1.437,0.103c-0.57,0.029-1.463,0.047-2.039,0.056c0,0-40.556,0.011-40.556,0.011
			c-2.137-0.014-5.224,0.017-7.338-0.158c-1.762-0.163-3.802-0.355-5.193-1.523c-0.07-0.061-0.104-0.092-0.104-0.092
			c-0.067-0.063-0.1-0.095-0.1-0.095c-0.064-0.065-0.095-0.098-0.095-0.098c-1.115-1.206-1.28-2.774-1.384-4.316
			c-0.179-3.866,0.661-7.721,1.591-11.452c0.554-2.144,1.192-4.351,1.934-6.438c0.418-1.118,0.854-2.355,1.548-3.322
			c0.064-0.082,0.095-0.12,0.095-0.12c0.062-0.072,0.078-0.089,0.078-0.089c0.076-0.079,0.091-0.094,0.091-0.094
			c0.075-0.067,0.089-0.08,0.089-0.08c0.073-0.056,0.087-0.066,0.087-0.066c0.086-0.053,0.093-0.057,0.093-0.057
			c0.083-0.039,0.09-0.042,0.09-0.042c0.082-0.025,0.088-0.027,0.088-0.027c0.086-0.013,0.093-0.013,0.093-0.013
			c0.084,0.002,0.09,0.003,0.09,0.003c0.082,0.016,0.088,0.018,0.088,0.018c0.308-1.592,0.579-4.955,0.819-6.583
			c0.493-3.903,1.545-9.775,1.626-13.649c0.109-4.124-0.581-9.153-0.878-13.277c-0.324-4.957-0.469-12.564-0.771-17.526
			l-2.444-36.381c-0.329-7.597-0.689-15.994-0.407-23.56c0.106-2.516,0.312-5.119,0.728-7.602c0.461-2.752,1.169-5.506,2.072-8.146
			c0.581-1.659,1.264-3.317,2.179-4.822c0.749-1.228,1.742-2.456,2.971-3.106c0.217-0.105,0.412-0.203,0.567-0.253
			c0.13-0.441,0.212-1.301,0.296-1.752c0.061-0.631,2.694-14.929,2.897-16.068c0.855-4.806,1.884-12.123,2.555-17
			c-0.813-0.397-1.531-1.007-1.954-1.726c-0.447-0.758-0.619-1.458-0.766-2.275c-0.194-1.184-0.246-2.434-0.292-3.633
			c-0.117-3.835,0.06-8.131,0.234-11.975c1.329-24.905,3.86-50.537,7.586-75.203c-0.268-0.786-0.295-1.546-0.271-2.353
			c0.108-2.228,0.725-4.857,0.987-7.073c0.509-3.9,0.954-8.817,2.047-12.575c-3.796-2.322-14.438-8.289-17.85-10.824
			c-1.175-0.871-2.324-1.823-3.278-2.936c-1.679-1.895-2.348-4.472-3.692-6.564c-1.012-1.574-2.462-2.822-3.9-3.994l-3.352-2.625
			c-1.491-1.216-3.193-2.625-3.932-4.409c-0.4-0.971-0.408-1.975-0.118-2.918c-1.853-1.24-3.567-2.726-4.963-4.471
			c-0.672-0.841-1.235-1.782-1.73-2.736l-1.201-2.373c-1.488-2.976-6.875-10.515-8.76-13.399
			c-5.753-8.868-11.431-18.097-15.848-27.712c-1.323-2.989-2.541-6.098-3.239-9.297c-0.563-2.563-0.72-5.259-0.104-7.826
			c0.48-2.072,1.424-4.012,2.544-5.81c1.849-2.954,4.181-5.655,6.527-8.224c5.593-5.992,11.64-11.952,17.891-17.257
			c1.708-1.457,4.071-3.245,5.873-4.608c1.497-1.143,3.083-2.397,4.395-3.747c1.624-1.646,2.94-3.601,4.164-5.555
			c0.828-1.354,3.783-6.238,4.643-7.518c1.311-2.014,2.865-4.146,4.343-6.042c2.688-3.434,5.677-6.885,8.678-10.049
			c1.714-1.784,3.582-3.688,5.472-5.286c0.889-0.748,1.849-1.442,2.886-1.97c0.788-0.408,1.635-0.733,2.471-1.027
			c3.441-1.241,11.383-3.16,14.935-4.166c2.203-0.617,4.461-1.344,6.585-2.187c4.505-1.777,9.525-4.254,14.14-5.706
			c2.679-0.862,5.598-1.233,8.396-1.493c0.545-4.524,1.102-10.493,2.157-14.879c-0.293-1.566-0.695-3.759-1.094-5.281
			c-0.876-0.023-1.914-0.023-2.712-0.364c-0.079-0.034-0.105-0.046-0.105-0.046c-0.078-0.037-0.103-0.05-0.103-0.05
			c-0.076-0.04-0.102-0.054-0.102-0.054c-0.075-0.043-0.1-0.058-0.1-0.058c-0.074-0.046-0.098-0.062-0.098-0.062
			c-0.073-0.05-0.097-0.067-0.097-0.067c-0.071-0.053-0.095-0.072-0.095-0.072c-0.07-0.057-0.093-0.077-0.093-0.077
			c-0.072-0.064-0.107-0.097-0.107-0.097c-0.07-0.069-0.104-0.104-0.104-0.104c-0.068-0.073-0.102-0.111-0.102-0.111
			c-0.066-0.078-0.099-0.118-0.099-0.118c-0.065-0.082-0.097-0.124-0.097-0.124c-0.953-1.334-1.377-3.017-1.813-4.573
			c-0.462-1.946-1.928-7.109-2.171-9.021c-0.071-0.536-0.116-1.16-0.036-1.679c0.014-0.086,0.022-0.127,0.022-0.127
			c0.018-0.082,0.027-0.122,0.027-0.122c0.021-0.078,0.027-0.097,0.027-0.097c0.024-0.074,0.031-0.093,0.031-0.093
			c0.027-0.071,0.034-0.088,0.034-0.088c0.038-0.084,0.047-0.101,0.047-0.101c0.045-0.082,0.054-0.098,0.054-0.098
			c0.05-0.077,0.06-0.092,0.06-0.092c0.066-0.085,0.077-0.099,0.077-0.099c0.071-0.079,0.084-0.091,0.084-0.091
			c0.077-0.072,0.09-0.084,0.09-0.084c0.082-0.067,0.095-0.078,0.095-0.078c0.071-0.052,0.1-0.072,0.1-0.072
			c0.059-0.038,0.09-0.057,0.09-0.057c0.061-0.036,0.092-0.054,0.092-0.054c0.176-0.097,0.336-0.165,0.456-0.215
			c0.083-0.033,0.605-0.239,0.666-0.267c-0.86-3.602-1.169-7.398-1.43-11.087c-0.231-3.579-0.277-7.257,0.612-10.756
			c1.112-4.517,4.172-8.217,7.294-11.536c1.188-1.237,3.646-3.775,4.838-4.984c2.167-2.133,4.673-4.497,7.862-4.685
			c2.203-0.172,4.766,0.481,6.935,0.862c4.969,0.867,10.479,0.818,14.925,3.48c1.93,1.191,3.345,3.264,4.909,4.85
			c3.397,3.542,7.4,7.269,8.575,12.213c0.857,3.377,0.678,6.927,0.322,10.362c-0.429,3.945-1.099,7.916-2.124,11.752
			c0.441-0.002,0.957,0.036,1.327,0.139c0.071,0.02,0.106,0.03,0.106,0.03c0.07,0.023,0.104,0.034,0.104,0.034
			c0.068,0.025,0.102,0.039,0.102,0.039c0.066,0.028,0.099,0.043,0.099,0.043c0.08,0.04,0.096,0.048,0.096,0.048
			c0.078,0.044,0.093,0.053,0.093,0.053c0.075,0.048,0.09,0.058,0.09,0.058c0.086,0.063,0.1,0.074,0.1,0.074
			c0.081,0.07,0.094,0.082,0.094,0.082c0.085,0.086,0.101,0.104,0.101,0.104c0.063,0.075,0.078,0.094,0.078,0.094
			c0.059,0.081,0.073,0.101,0.073,0.101c0.054,0.086,0.068,0.108,0.068,0.108c0.038,0.068,0.05,0.091,0.05,0.091
			c0.036,0.071,0.047,0.096,0.047,0.096c0.033,0.074,0.044,0.1,0.044,0.1c0.031,0.077,0.04,0.104,0.04,0.104
			c0.028,0.08,0.037,0.108,0.037,0.108c0.243,0.787,0.228,1.55,0.172,2.304c-0.082,0.946-0.29,1.895-0.534,2.811
			c-0.765,2.821-2.149,6.146-3.153,8.899c-0.281,0.72-0.641,1.563-1.094,2.148c-0.065,0.082-0.086,0.108-0.086,0.108
			c-0.067,0.078-0.089,0.103-0.089,0.103c-0.069,0.074-0.092,0.098-0.092,0.098c-0.071,0.07-0.095,0.093-0.095,0.093
			c-0.073,0.066-0.098,0.088-0.098,0.088c-0.076,0.062-0.101,0.082-0.101,0.082c-0.078,0.058-0.104,0.077-0.104,0.077
			c-0.081,0.054-0.108,0.071-0.108,0.071c-0.083,0.05-0.112,0.065-0.112,0.065c-0.075,0.04-0.101,0.052-0.101,0.052
			c-0.077,0.036-0.103,0.048-0.103,0.048c-0.079,0.033-0.106,0.044-0.106,0.044c-0.081,0.03-0.109,0.04-0.109,0.04
			c-0.083,0.027-0.111,0.035-0.111,0.035c-1.145,0.311-2.236,0.12-3.325-0.182c-0.335,1.069-1.409,4.948-1.729,6.093
			C426.933,152.607,427.008,158.789,426.986,164.609z"/>
	</g>
</g>
</svg>
